# Made in Blockbench 4.2.4
mtllib damagekit.mtl

o borders
v 0.625 1.0625 -0.4375
v 0.625 1.0625 -0.625
v 0.625 0.1875 -0.4375
v 0.4375 1.0625 -0.4375
v 0.4375 1.0625 -0.625
v 0.4375 0.1875 -0.4375
v -0.4375 1.0625 -0.4375
v -0.4375 1.0625 -0.625
v -0.4375 0.1875 -0.4375
v -0.4375 0.1875 -0.625
v -0.625 1.0625 -0.4375
v -0.625 1.0625 -0.625
v -0.625 0.1875 -0.4375
v -0.625 0.1875 -0.625
v -0.4375 1.0625 0.625
v -0.4375 1.0625 0.4375
v -0.4375 0.1875 0.625
v -0.4375 0.1875 0.4375
v -0.625 1.0625 0.625
v -0.625 1.0625 0.4375
v -0.625 0.1875 0.625
v -0.625 0.1875 0.4375
v 0.625 1.0625 0.625
v 0.625 1.0625 0.4375
v 0.625 0.1875 0.625
v 0.625 0.1875 0.4375
v 0.4375 1.0625 0.625
v 0.4375 1.0625 0.4375
v 0.4375 0.1875 0.625
v 0.4375 0.1875 0.4375
v 0.4375 0.1875 0.625
v 0.4375 0.1875 0.4375
v 0.4375 0 0.625
v 0.4375 0 0.4375
v -0.4375 0.1875 0.625
v -0.4375 0.1875 0.4375
v -0.4375 0 0.625
v -0.4375 0 0.4375
v 0.4375 0.1875 -0.4375
v 0.4375 0.1875 -0.625
v 0.4375 0 -0.4375
v -0.4375 0.1875 -0.4375
v -0.4375 0.1875 -0.625
v -0.4375 0 -0.4375
v -0.4375 0 -0.625
v -0.4375 0.1875 0.4375
v -0.4375 0.1875 -0.4375
v -0.4375 0 0.4375
v -0.4375 0 -0.4375
v -0.625 0.1875 0.4375
v -0.625 0.1875 -0.4375
v -0.625 0 0.4375
v -0.625 0 -0.4375
v 0.625 0.1875 0.4375
v 0.625 0.1875 -0.4375
v 0.625 0 0.4375
v 0.625 0 -0.4375
v 0.4375 0.1875 0.4375
v 0.4375 0.1875 -0.4375
v 0.4375 0 0.4375
v 0.4375 0 -0.4375
v 0.4375 1.25 -0.4375
v 0.4375 1.25 -0.625
v 0.4375 1.0625 -0.4375
v 0.4375 1.0625 -0.625
v -0.4375 1.25 -0.4375
v -0.4375 1.25 -0.625
v -0.4375 1.0625 -0.4375
v -0.4375 1.0625 -0.625
v -0.4375 1.25 0.4375
v -0.4375 1.25 -0.4375
v -0.4375 1.0625 0.4375
v -0.4375 1.0625 -0.4375
v -0.625 1.25 0.4375
v -0.625 1.25 -0.4375
v -0.625 1.0625 0.4375
v -0.625 1.0625 -0.4375
v 0.625 1.25 0.4375
v 0.625 1.25 -0.4375
v 0.625 1.0625 0.4375
v 0.625 1.0625 -0.4375
v 0.4375 1.25 0.4375
v 0.4375 1.25 -0.4375
v 0.4375 1.0625 0.4375
v 0.4375 1.0625 -0.4375
v 0.4375 1.25 0.625
v 0.4375 1.25 0.4375
v 0.4375 1.0625 0.625
v 0.4375 1.0625 0.4375
v -0.4375 1.25 0.625
v -0.4375 1.25 0.4375
v -0.4375 1.0625 0.625
v -0.4375 1.0625 0.4375
v 0.625 0.1875 -0.625
v 0.4375 0.1875 -0.625
v 0.4375 0 -0.625
vt 0.421875 0.984375
vt 0.390625 0.984375
vt 0.390625 0.953125
vt 0.421875 0.953125
vt 0.484375 0.984375
vt 0.453125 0.984375
vt 0.453125 0.953125
vt 0.484375 0.953125
vt 0.546875 0.984375
vt 0.515625 0.984375
vt 0.515625 0.953125
vt 0.546875 0.953125
vt 0.609375 0.984375
vt 0.578125 0.984375
vt 0.578125 0.953125
vt 0.609375 0.953125
vt 0.671875 0.984375
vt 0.640625 0.984375
vt 0.640625 0.953125
vt 0.671875 0.953125
vt 0.734375 0.984375
vt 0.703125 0.984375
vt 0.703125 0.953125
vt 0.734375 0.953125
vt 0.859375 0.984375
vt 0.828125 0.984375
vt 0.828125 0.953125
vt 0.859375 0.953125
vt 0.921875 0.984375
vt 0.890625 0.984375
vt 0.890625 0.953125
vt 0.921875 0.953125
vt 0.984375 0.984375
vt 0.953125 0.984375
vt 0.953125 0.953125
vt 0.984375 0.953125
vt 0.046875 0.921875
vt 0.015625 0.921875
vt 0.015625 0.890625
vt 0.046875 0.890625
vt 0.171875 0.921875
vt 0.140625 0.921875
vt 0.140625 0.890625
vt 0.171875 0.890625
vt 0.234375 0.921875
vt 0.203125 0.921875
vt 0.203125 0.890625
vt 0.234375 0.890625
vt 0.296875 0.921875
vt 0.265625 0.921875
vt 0.265625 0.890625
vt 0.296875 0.890625
vt 0.359375 0.921875
vt 0.328125 0.921875
vt 0.328125 0.890625
vt 0.359375 0.890625
vt 0.421875 0.921875
vt 0.390625 0.921875
vt 0.390625 0.890625
vt 0.421875 0.890625
vt 0.484375 0.921875
vt 0.453125 0.921875
vt 0.453125 0.890625
vt 0.484375 0.890625
vt 0.609375 0.921875
vt 0.578125 0.921875
vt 0.578125 0.890625
vt 0.609375 0.890625
vt 0.671875 0.921875
vt 0.640625 0.921875
vt 0.640625 0.890625
vt 0.671875 0.890625
vt 0.734375 0.921875
vt 0.703125 0.921875
vt 0.703125 0.890625
vt 0.734375 0.890625
vt 0.796875 0.921875
vt 0.765625 0.921875
vt 0.765625 0.890625
vt 0.796875 0.890625
vt 0.859375 0.921875
vt 0.828125 0.921875
vt 0.828125 0.890625
vt 0.859375 0.890625
vt 0.921875 0.921875
vt 0.890625 0.921875
vt 0.890625 0.890625
vt 0.921875 0.890625
vt 0.984375 0.921875
vt 0.953125 0.921875
vt 0.953125 0.890625
vt 0.984375 0.890625
vt 0.046875 0.859375
vt 0.015625 0.859375
vt 0.015625 0.828125
vt 0.046875 0.828125
vt 0.109375 0.859375
vt 0.078125 0.859375
vt 0.078125 0.828125
vt 0.109375 0.828125
vt 0.171875 0.859375
vt 0.140625 0.859375
vt 0.140625 0.828125
vt 0.171875 0.828125
vt 0.234375 0.859375
vt 0.203125 0.859375
vt 0.203125 0.828125
vt 0.234375 0.828125
vt 0.296875 0.859375
vt 0.265625 0.859375
vt 0.265625 0.828125
vt 0.296875 0.828125
vt 0.421875 0.859375
vt 0.390625 0.859375
vt 0.390625 0.828125
vt 0.421875 0.828125
vt 0.484375 0.859375
vt 0.453125 0.859375
vt 0.453125 0.828125
vt 0.484375 0.828125
vt 0.546875 0.859375
vt 0.515625 0.859375
vt 0.515625 0.828125
vt 0.546875 0.828125
vt 0.609375 0.859375
vt 0.578125 0.859375
vt 0.578125 0.828125
vt 0.609375 0.828125
vt 0.671875 0.859375
vt 0.640625 0.859375
vt 0.640625 0.828125
vt 0.671875 0.828125
vt 0.734375 0.859375
vt 0.703125 0.859375
vt 0.703125 0.828125
vt 0.734375 0.828125
vt 0.796875 0.859375
vt 0.765625 0.859375
vt 0.765625 0.828125
vt 0.796875 0.828125
vt 0.859375 0.859375
vt 0.828125 0.859375
vt 0.828125 0.828125
vt 0.859375 0.828125
vt 0.921875 0.859375
vt 0.890625 0.859375
vt 0.890625 0.828125
vt 0.921875 0.828125
vt 0.984375 0.859375
vt 0.953125 0.859375
vt 0.953125 0.828125
vt 0.984375 0.828125
vt 0.046875 0.796875
vt 0.015625 0.796875
vt 0.015625 0.765625
vt 0.046875 0.765625
vt 0.109375 0.796875
vt 0.078125 0.796875
vt 0.078125 0.765625
vt 0.109375 0.765625
vt 0.171875 0.796875
vt 0.140625 0.796875
vt 0.140625 0.765625
vt 0.171875 0.765625
vt 0.234375 0.796875
vt 0.203125 0.796875
vt 0.203125 0.765625
vt 0.234375 0.765625
vt 0.296875 0.796875
vt 0.265625 0.796875
vt 0.265625 0.765625
vt 0.296875 0.765625
vt 0.359375 0.796875
vt 0.328125 0.796875
vt 0.328125 0.765625
vt 0.359375 0.765625
vt 0.421875 0.796875
vt 0.390625 0.796875
vt 0.390625 0.765625
vt 0.421875 0.765625
vt 0.484375 0.796875
vt 0.453125 0.796875
vt 0.453125 0.765625
vt 0.484375 0.765625
vt 0.546875 0.796875
vt 0.515625 0.796875
vt 0.515625 0.765625
vt 0.546875 0.765625
vt 0.609375 0.796875
vt 0.578125 0.796875
vt 0.578125 0.765625
vt 0.609375 0.765625
vt 0.671875 0.796875
vt 0.640625 0.796875
vt 0.640625 0.765625
vt 0.734375 0.796875
vt 0.703125 0.796875
vt 0.703125 0.765625
vt 0.796875 0.796875
vt 0.765625 0.796875
vt 0.765625 0.765625
vt 0.859375 0.796875
vt 0.828125 0.796875
vt 0.828125 0.765625
vt 0.921875 0.796875
vt 0.890625 0.796875
vt 0.890625 0.765625
vt 0.984375 0.796875
vt 0.953125 0.796875
vt 0.953125 0.765625
vt 0.046875 0.734375
vt 0.015625 0.734375
vt 0.015625 0.703125
vt 0.109375 0.734375
vt 0.078125 0.734375
vt 0.078125 0.703125
vt 0.171875 0.734375
vt 0.140625 0.734375
vt 0.140625 0.703125
vt 0.234375 0.734375
vt 0.203125 0.734375
vt 0.203125 0.703125
vt 0.359375 0.734375
vt 0.328125 0.734375
vt 0.328125 0.703125
vt 0.421875 0.734375
vt 0.390625 0.734375
vt 0.390625 0.703125
vt 0.546875 0.734375
vt 0.515625 0.734375
vt 0.515625 0.703125
vt 0.609375 0.734375
vt 0.578125 0.734375
vt 0.578125 0.703125
vt 0.671875 0.734375
vt 0.640625 0.734375
vt 0.640625 0.703125
vt 0.734375 0.734375
vt 0.703125 0.734375
vt 0.703125 0.703125
vt 0.796875 0.734375
vt 0.765625 0.734375
vt 0.765625 0.703125
vt 0.859375 0.734375
vt 0.828125 0.734375
vt 0.828125 0.703125
vt 0.921875 0.734375
vt 0.890625 0.734375
vt 0.890625 0.703125
vt 0.046875 0.671875
vt 0.015625 0.671875
vt 0.015625 0.640625
vt 0.109375 0.671875
vt 0.078125 0.671875
vt 0.078125 0.640625
vt 0.171875 0.671875
vt 0.140625 0.671875
vt 0.140625 0.640625
vt 0.234375 0.671875
vt 0.203125 0.671875
vt 0.203125 0.640625
vt 0.296875 0.671875
vt 0.265625 0.671875
vt 0.265625 0.640625
vt 0.359375 0.671875
vt 0.328125 0.671875
vt 0.328125 0.640625
vt 0.421875 0.671875
vt 0.390625 0.671875
vt 0.390625 0.640625
vt 0.484375 0.671875
vt 0.453125 0.671875
vt 0.453125 0.640625
vt 0.546875 0.671875
vt 0.515625 0.671875
vt 0.515625 0.640625
vt 0.609375 0.671875
vt 0.578125 0.671875
vt 0.578125 0.640625
vt 0.375 0.875
vt 0.375 0.6875
vt 0.5625 0.6875
vt 0.6875 0.75
vt 0.6875 0.9375
vt 0.5 0.9375
vt 0.5 0.6875
vt 0.3125 0.875
vt 0.3125 0.6875
vn 1 0 0
vn -1 0 0
vn 0 0 1
vn 0 0 -1
vn 1 0 0
vn -1 0 0
vn 0 0 1
vn 0 0 -1
vn 1 0 0
vn -1 0 0
vn 0 0 1
vn 0 0 -1
vn 1 0 0
vn -1 0 0
vn 0 0 1
vn 0 0 -1
vn 0 1 0
vn 0 -1 0
vn 0 0 1
vn 0 0 -1
vn 0 1 0
vn 0 -1 0
vn 0 0 1
vn 0 0 -1
vn 1 0 0
vn -1 0 0
vn 0 1 0
vn 0 -1 0
vn 1 0 0
vn -1 0 0
vn 0 1 0
vn 0 -1 0
vn 0 1 0
vn 0 -1 0
vn 0 0 1
vn 0 0 -1
vn 1 0 0
vn -1 0 0
vn 0 1 0
vn 1 0 0
vn -1 0 0
vn 0 1 0
vn 0 -1 0
vn 0 1 0
vn 0 -1 0
vn 0 0 1
vn 0 0 -1
vn 0 -1 0
vn 0.5773502691896257 0.5773502691896257 -0.5773502691896257
vn 1 0 0
vn 0 0 -1
vn 0 1 0
vn 0.5773502691896257 0.5773502691896257 0.5773502691896257
vn 0 1 0
vn 1 0 0
vn 0 0 1
vn -0.5773502691896257 0.5773502691896257 0.5773502691896257
vn 0 1 0
vn 0 0 1
vn -0.5773502691896257 0.5773502691896257 -0.5773502691896257
vn -1 0 0
vn 0 1 0
vn -0.5773502691896257 -0.5773502691896257 -0.5773502691896257
vn -1 0 0
vn 0 0 -1
vn 0 -1 0
vn -0.5773502691896257 -0.5773502691896257 0.5773502691896257
vn -1 0 0
vn 0 -1 0
vn 0.5773502691896257 -0.5773502691896257 0.5773502691896257
vn 1 0 0
vn 0 0 1
vn 0 -1 0
vn 0.5773502691896257 -0.5773502691896257 -0.5773502691896257
vn 0 -1 0
vn 0 0 -1
vn 1 0 0
vn -1 0 0
vn 0 0 1
vn 0 0 -1
usemtl m_0
f 94/1/1 2/2/1 1/3/1 3/4/1
f 6/5/2 4/6/2 5/7/2 95/8/2
f 3/9/3 1/10/3 4/11/3 6/12/3
f 95/13/4 5/14/4 2/15/4 94/16/4
f 10/17/5 8/18/5 7/19/5 9/20/5
f 13/21/6 11/22/6 12/23/6 14/24/6
f 9/25/7 7/26/7 11/27/7 13/28/7
f 14/29/8 12/30/8 8/31/8 10/32/8
f 18/33/9 16/34/9 15/35/9 17/36/9
f 21/37/10 19/38/10 20/39/10 22/40/10
f 17/41/11 15/42/11 19/43/11 21/44/11
f 22/45/12 20/46/12 16/47/12 18/48/12
f 26/49/13 24/50/13 23/51/13 25/52/13
f 29/53/14 27/54/14 28/55/14 30/56/14
f 25/57/15 23/58/15 27/59/15 29/60/15
f 30/61/16 28/62/16 24/63/16 26/64/16
f 31/65/17 32/66/17 36/67/17 35/68/17
f 34/69/18 33/70/18 37/71/18 38/72/18
f 33/73/19 31/74/19 35/75/19 37/76/19
f 38/77/20 36/78/20 32/79/20 34/80/20
f 39/81/21 40/82/21 43/83/21 42/84/21
f 96/85/22 41/86/22 44/87/22 45/88/22
f 41/89/23 39/90/23 42/91/23 44/92/23
f 45/93/24 43/94/24 40/95/24 96/96/24
f 49/97/25 47/98/25 46/99/25 48/100/25
f 52/101/26 50/102/26 51/103/26 53/104/26
f 46/105/27 47/106/27 51/107/27 50/108/27
f 49/109/28 48/110/28 52/111/28 53/112/28
f 57/113/29 55/114/29 54/115/29 56/116/29
f 60/117/30 58/118/30 59/119/30 61/120/30
f 54/121/31 55/122/31 59/123/31 58/124/31
f 57/125/32 56/126/32 60/127/32 61/128/32
f 62/129/33 63/130/33 67/131/33 66/132/33
f 65/133/34 64/134/34 68/135/34 69/136/34
f 64/137/35 62/138/35 66/139/35 68/140/35
f 69/141/36 67/142/36 63/143/36 65/144/36
f 73/145/37 71/146/37 70/147/37 72/148/37
f 76/149/38 74/150/38 75/151/38 77/152/38
f 70/153/39 71/154/39 75/155/39 74/156/39
f 81/157/40 79/158/40 78/159/40 80/160/40
f 84/161/41 82/162/41 83/163/41 85/164/41
f 78/165/42 79/166/42 83/167/42 82/168/42
f 81/169/43 80/170/43 84/171/43 85/172/43
f 86/173/44 87/174/44 91/175/44 90/176/44
f 89/177/45 88/178/45 92/179/45 93/180/45
f 88/181/46 86/182/46 90/183/46 92/184/46
f 93/185/47 91/186/47 87/187/47 89/188/47
f 73/189/48 72/190/48 76/191/48 77/192/48
f 63/193/49 79/194/49 2/195/49
f 79/196/50 1/197/50 2/198/50
f 2/199/51 5/200/51 63/201/51
f 62/202/52 79/203/52 63/204/52
f 78/205/53 86/206/53 23/207/53
f 82/208/54 86/209/54 78/210/54
f 78/211/55 23/212/55 24/213/55
f 23/214/56 86/215/56 27/216/56
f 90/217/57 74/218/57 19/219/57
f 70/220/58 74/221/58 90/222/58
f 90/223/59 19/224/59 15/225/59
f 75/226/60 67/227/60 12/228/60
f 11/229/61 75/230/61 12/231/61
f 66/232/62 67/233/62 75/234/62
f 45/235/63 53/236/63 14/237/63
f 53/238/64 13/239/64 14/240/64
f 10/241/65 45/242/65 14/243/65
f 44/244/66 53/245/66 45/246/66
f 21/247/67 52/248/67 37/249/67
f 52/250/68 21/251/68 22/252/68
f 52/253/69 38/254/69 37/255/69
f 25/256/70 33/257/70 56/258/70
f 56/259/71 26/260/71 25/261/71
f 33/262/72 25/263/72 29/264/72
f 34/265/73 56/266/73 33/267/73
f 57/268/74 96/269/74 94/270/74
f 41/271/75 96/272/75 57/273/75
f 96/274/76 40/275/76 94/276/76
f 3/277/77 57/278/77 94/279/77
f 74/280/78 20/281/78 19/282/78
f 37/283/79 17/284/79 21/285/79
f 12/286/80 67/287/80 8/288/80
o icon
v -0.01704545454545453 0.5891544117647058 -0.4375
v -0.1875 0.5891544117647058 -0.4375
v -0.01704545454545453 0.953125 -0.4375
v -0.01704545454545453 0.5891544117647058 -0.484375
v -0.1875 0.5891544117647058 -0.484375
v -0.01704545454545453 0.953125 -0.484375
v -0.01704545454545453 0.265625 -0.4375
v 0.125 0.6295955882352942 -0.4375
v -0.01704545454545453 0.6295955882352942 -0.4375
v -0.01704545454545453 0.265625 -0.484375
v 0.125 0.6295955882352942 -0.484375
v -0.01704545454545453 0.6295955882352942 -0.484375
vt 0.734375 0.671875
vt 0.703125 0.671875
vt 0.703125 0.640625
vt 0.921875 0.671875
vt 0.890625 0.671875
vt 0.890625 0.640625
vt 0.921875 0.640625
vt 0.984375 0.671875
vt 0.953125 0.671875
vt 0.953125 0.640625
vt 0.984375 0.640625
vt 0.046875 0.609375
vt 0.015625 0.609375
vt 0.015625 0.578125
vt 0.046875 0.578125
vt 0.140625 0.578125
vt 0.140625 0.609375
vt 0.171875 0.609375
vt 0.171875 0.578125
vt 0.234375 0.609375
vt 0.203125 0.609375
vt 0.203125 0.578125
vt 0.234375 0.578125
vt 0 0.625
vt 0.20454375000000002 0.57353125
vt 0.14204375000000002 0.625
vt 0.75 0.66059375
vt 0.984375 0.66059375
vt 0.734375 0.6875
vt 0.6875 0.6875
vn 0 0 -1
vn 0.9315705532342295 -0.36356059240087 0
vn -1 0 0
vn 0 1 0
vn 0 -1 0
vn 1 0 0
vn 0 0 -1
vn -0.9056086867902312 0.4241142610312378 0
usemtl m_0
f 100/289/81 101/290/81 102/291/81
f 104/292/82 103/293/82 106/294/82 107/295/82
f 103/296/83 97/297/83 100/298/83 106/299/83
f 105/300/84 104/301/84 107/302/84 108/303/84
f 100/304/85 97/305/85 98/306/85 101/307/85
f 102/308/86 99/309/86 105/310/86 108/311/86
f 107/312/87 106/313/87 108/314/87
f 101/315/88 98/316/88 99/317/88 102/318/88
o icon
v -0.4375 0.5891544117647058 0.01704545454545453
v -0.4375 0.5891544117647058 0.1875
v -0.4375 0.953125 0.01704545454545453
v -0.484375 0.5891544117647058 0.01704545454545453
v -0.484375 0.5891544117647058 0.1875
v -0.484375 0.953125 0.01704545454545453
v -0.4375 0.265625 0.01704545454545453
v -0.4375 0.6295955882352942 -0.125
v -0.4375 0.6295955882352942 0.01704545454545453
v -0.484375 0.265625 0.01704545454545453
v -0.484375 0.6295955882352942 -0.125
v -0.484375 0.6295955882352942 0.01704545454545453
vt 0.734375 0.671875
vt 0.703125 0.671875
vt 0.703125 0.640625
vt 0.921875 0.671875
vt 0.890625 0.671875
vt 0.890625 0.640625
vt 0.921875 0.640625
vt 0.984375 0.671875
vt 0.953125 0.671875
vt 0.953125 0.640625
vt 0.984375 0.640625
vt 0.046875 0.609375
vt 0.015625 0.609375
vt 0.015625 0.578125
vt 0.046875 0.578125
vt 0.140625 0.578125
vt 0.140625 0.609375
vt 0.171875 0.609375
vt 0.171875 0.578125
vt 0.234375 0.609375
vt 0.203125 0.609375
vt 0.203125 0.578125
vt 0.234375 0.578125
vt 0.14204375 0.625
vt 0 0.625
vt 0.07954375 0.57353125
vt 0.0625 0.625
vt 0.0625 0.59809375
vt 0.234375 0.59809375
vt 0.109375 0.625
vn -1 0 0
vn 0 -0.36356059240087 -0.9315705532342295
vn 0 0 1
vn 0 1 0
vn 0 -1 0
vn 0 0 -1
vn -1 0 0
vn 0 0.4241142610312378 0.9056086867902312
usemtl m_0
f 112/319/89 113/320/89 114/321/89
f 116/322/90 115/323/90 118/324/90 119/325/90
f 115/326/91 109/327/91 112/328/91 118/329/91
f 117/330/92 116/331/92 119/332/92 120/333/92
f 112/334/93 109/335/93 110/336/93 113/337/93
f 114/338/94 111/339/94 117/340/94 120/341/94
f 120/342/95 119/343/95 118/344/95
f 114/345/96 113/346/96 110/347/96 111/348/96
o icon
v 0.01704545454545453 0.5891544117647058 0.4375
v 0.1875 0.5891544117647058 0.4375
v 0.01704545454545453 0.953125 0.4375
v 0.01704545454545453 0.5891544117647058 0.484375
v 0.1875 0.5891544117647058 0.484375
v 0.01704545454545453 0.953125 0.484375
v 0.01704545454545453 0.265625 0.4375
v -0.125 0.6295955882352942 0.4375
v 0.01704545454545453 0.6295955882352942 0.4375
v 0.01704545454545453 0.265625 0.484375
v -0.125 0.6295955882352942 0.484375
v 0.01704545454545453 0.6295955882352942 0.484375
vt 0.734375 0.671875
vt 0.703125 0.671875
vt 0.703125 0.640625
vt 0.921875 0.671875
vt 0.890625 0.671875
vt 0.890625 0.640625
vt 0.921875 0.640625
vt 0.984375 0.671875
vt 0.953125 0.671875
vt 0.953125 0.640625
vt 0.984375 0.640625
vt 0.046875 0.609375
vt 0.015625 0.609375
vt 0.015625 0.578125
vt 0.046875 0.578125
vt 0.140625 0.578125
vt 0.140625 0.609375
vt 0.171875 0.609375
vt 0.171875 0.578125
vt 0.234375 0.609375
vt 0.203125 0.609375
vt 0.203125 0.578125
vt 0.234375 0.578125
vt 0.20454375000000002 0.625
vt 0.0625 0.625
vt 0.14204375000000002 0.57353125
vt 0.234375 0.59809375
vt 0.171875 0.625
vt 0.125 0.625
vt 0.0625 0.59809375
vn 0 0 1
vn -0.9315705532342295 -0.36356059240087 0
vn 1 0 0
vn 0 1 0
vn 0 -1 0
vn -1 0 0
vn 0 0 1
vn 0.9056086867902312 0.4241142610312378 0
usemtl m_0
f 124/349/97 125/350/97 126/351/97
f 128/352/98 127/353/98 130/354/98 131/355/98
f 127/356/99 121/357/99 124/358/99 130/359/99
f 129/360/100 128/361/100 131/362/100 132/363/100
f 124/364/101 121/365/101 122/366/101 125/367/101
f 126/368/102 123/369/102 129/370/102 132/371/102
f 132/372/103 131/373/103 130/374/103
f 122/375/104 123/376/104 126/377/104 125/378/104
o icon
v 0.4375 0.5891544117647058 -0.01704545454545453
v 0.4375 0.5891544117647058 -0.1875
v 0.4375 0.953125 -0.01704545454545453
v 0.484375 0.5891544117647058 -0.01704545454545453
v 0.484375 0.5891544117647058 -0.1875
v 0.484375 0.953125 -0.01704545454545453
v 0.4375 0.265625 -0.01704545454545453
v 0.4375 0.6295955882352942 0.125
v 0.4375 0.6295955882352942 -0.01704545454545453
v 0.484375 0.265625 -0.01704545454545453
v 0.484375 0.6295955882352942 0.125
v 0.484375 0.6295955882352942 -0.01704545454545453
vt 0.734375 0.671875
vt 0.703125 0.671875
vt 0.703125 0.640625
vt 0.921875 0.671875
vt 0.890625 0.671875
vt 0.890625 0.640625
vt 0.921875 0.640625
vt 0.984375 0.671875
vt 0.953125 0.671875
vt 0.953125 0.640625
vt 0.984375 0.640625
vt 0.046875 0.609375
vt 0.015625 0.609375
vt 0.015625 0.578125
vt 0.046875 0.578125
vt 0.140625 0.578125
vt 0.140625 0.609375
vt 0.171875 0.609375
vt 0.171875 0.578125
vt 0.234375 0.609375
vt 0.203125 0.609375
vt 0.203125 0.578125
vt 0.234375 0.578125
vt 0.1875 0.625
vt 0 0.59809375
vt 0.21875 0.5625
vt 0.234375 0.625
vt 0.75 0.6875
vt 0.82954375 0.63603125
vt 0.89204375 0.6875
vn 1 0 0
vn 0 -0.36356059240087 0.9315705532342295
vn 0 0 -1
vn 0 1 0
vn 0 -1 0
vn 0 0 1
vn 0 0.4241142610312378 -0.9056086867902312
vn 1 0 0
usemtl m_0
f 136/379/105 137/380/105 138/381/105
f 140/382/106 139/383/106 142/384/106 143/385/106
f 139/386/107 133/387/107 136/388/107 142/389/107
f 141/390/108 140/391/108 143/392/108 144/393/108
f 136/394/109 133/395/109 134/396/109 137/397/109
f 138/398/110 135/399/110 141/400/110 144/401/110
f 138/402/111 137/403/111 134/404/111 135/405/111
f 143/406/112 142/407/112 144/408/112
o icon
v 0.020220588235294157 1.0625 -0.01704545454545453
v 0.020220588235294157 1.0625 -0.1875
v -0.34375 1.0625 -0.01704545454545453
v 0.020220588235294157 1.109375 -0.01704545454545453
v 0.020220588235294157 1.109375 -0.1875
v -0.34375 1.109375 -0.01704545454545453
v 0.34375 1.0625 -0.01704545454545453
v -0.020220588235294157 1.0625 0.125
v -0.020220588235294157 1.0625 -0.01704545454545453
v 0.34375 1.109375 -0.01704545454545453
v -0.020220588235294157 1.109375 0.125
v -0.020220588235294157 1.109375 -0.01704545454545453
vt 0.734375 0.671875
vt 0.703125 0.671875
vt 0.703125 0.640625
vt 0.921875 0.671875
vt 0.890625 0.671875
vt 0.890625 0.640625
vt 0.921875 0.640625
vt 0.984375 0.671875
vt 0.953125 0.671875
vt 0.953125 0.640625
vt 0.984375 0.640625
vt 0.046875 0.609375
vt 0.015625 0.609375
vt 0.015625 0.578125
vt 0.046875 0.578125
vt 0.140625 0.578125
vt 0.140625 0.609375
vt 0.171875 0.609375
vt 0.171875 0.578125
vt 0.234375 0.609375
vt 0.203125 0.609375
vt 0.203125 0.578125
vt 0.234375 0.578125
vt 0.671875 0.671875
vt 0.640625 0.671875
vt 0.640625 0.640625
vt 0.078125 0.578125
vt 0.078125 0.609375
vt 0.109375 0.609375
vt 0.109375 0.578125
vt 0.796875 0.671875
vt 0.765625 0.671875
vt 0.765625 0.640625
vt 0.828125 0.671875
vt 0.859375 0.671875
vt 0.828125 0.640625
vn 0 1 0
vn 0.36356059240087 0 0.9315705532342295
vn 0 0 -1
vn -1 0 0
vn 1 0 0
vn 0 0 1
vn 0 1 0
vn -0.4241142610312378 0 -0.9056086867902312
vn 0 -1 0
vn 0 1 0
usemtl m_0
f 148/409/113 149/410/113 150/411/113
f 152/412/114 151/413/114 154/414/114 155/415/114
f 151/416/115 145/417/115 148/418/115 154/419/115
f 153/420/116 152/421/116 155/422/116 156/423/116
f 148/424/117 145/425/117 146/426/117 149/427/117
f 150/428/118 147/429/118 153/430/118 156/431/118
f 145/432/119 146/433/119 147/434/119
f 149/435/120 146/436/120 147/437/120 150/438/120
f 151/439/121 152/440/121 153/441/121
f 155/442/122 154/443/122 156/444/122
o icon
v 0.020220588235294157 0.125 -0.01704545454545453
v 0.020220588235294157 0.125 -0.1875
v -0.34375 0.125 -0.01704545454545453
v 0.020220588235294157 0.171875 -0.01704545454545453
v 0.020220588235294157 0.171875 -0.1875
v -0.34375 0.171875 -0.01704545454545453
v 0.34375 0.125 -0.01704545454545453
v -0.020220588235294157 0.125 0.125
v -0.020220588235294157 0.125 -0.01704545454545453
v 0.34375 0.171875 -0.01704545454545453
v -0.020220588235294157 0.171875 0.125
v -0.020220588235294157 0.171875 -0.01704545454545453
vt 0.640625 0.671875
vt 0.671875 0.671875
vt 0.640625 0.640625
vt 0.734375 0.671875
vt 0.703125 0.671875
vt 0.703125 0.640625
vt 0.796875 0.671875
vt 0.765625 0.671875
vt 0.765625 0.640625
vt 0.859375 0.671875
vt 0.828125 0.671875
vt 0.828125 0.640625
vt 0.921875 0.671875
vt 0.890625 0.671875
vt 0.890625 0.640625
vt 0.921875 0.640625
vt 0.984375 0.671875
vt 0.953125 0.671875
vt 0.953125 0.640625
vt 0.984375 0.640625
vt 0.046875 0.609375
vt 0.015625 0.609375
vt 0.015625 0.578125
vt 0.046875 0.578125
vt 0.078125 0.578125
vt 0.078125 0.609375
vt 0.109375 0.609375
vt 0.109375 0.578125
vt 0.140625 0.578125
vt 0.140625 0.609375
vt 0.171875 0.609375
vt 0.171875 0.578125
vt 0.234375 0.609375
vt 0.203125 0.609375
vt 0.203125 0.578125
vt 0.234375 0.578125
vn 0 -1 0
vn 0 1 0
vn 0 -1 0
vn 0 -1 0
vn 0.36356059240087 0 0.9315705532342295
vn 0 0 -1
vn -1 0 0
vn -0.4241142610312378 0 -0.9056086867902312
vn 1 0 0
vn 0 0 1
usemtl m_0
f 158/445/123 157/446/123 159/447/123
f 160/448/124 161/449/124 162/450/124
f 163/451/125 164/452/125 165/453/125
f 166/454/126 167/455/126 168/456/126
f 164/457/127 163/458/127 166/459/127 167/460/127
f 163/461/128 157/462/128 160/463/128 166/464/128
f 165/465/129 164/466/129 167/467/129 168/468/129
f 161/469/130 158/470/130 159/471/130 162/472/130
f 160/473/131 157/474/131 158/475/131 161/476/131
f 162/477/132 159/478/132 165/479/132 168/480/132
o main
v 0.4375 1.0625 0.4375
v 0.4375 1.0625 -0.4375
v 0.4375 0.1875 0.4375
v 0.4375 0.1875 -0.4375
v -0.4375 1.0625 -0.4375
v -0.4375 1.0625 0.4375
v -0.4375 0.1875 -0.4375
v -0.4375 0.1875 0.4375
vt 0.015625 0.984375
vt 0.046875 0.984375
vt 0.046875 0.953125
vt 0.015625 0.953125
vt 0.078125 0.984375
vt 0.109375 0.984375
vt 0.109375 0.953125
vt 0.078125 0.953125
vt 0.140625 0.984375
vt 0.171875 0.984375
vt 0.171875 0.953125
vt 0.140625 0.953125
vt 0.203125 0.984375
vt 0.234375 0.984375
vt 0.234375 0.953125
vt 0.203125 0.953125
vt 0.265625 0.984375
vt 0.296875 0.984375
vt 0.296875 0.953125
vt 0.265625 0.953125
vt 0.328125 0.984375
vt 0.359375 0.984375
vt 0.359375 0.953125
vt 0.328125 0.953125
vn 0 0 -1
vn 1 0 0
vn 0 0 1
vn -1 0 0
vn 0 1 0
vn 0 -1 0
usemtl m_0
f 172/484/133 175/483/133 173/482/133 170/481/133
f 171/488/134 172/487/134 170/486/134 169/485/134
f 176/492/135 171/491/135 169/490/135 174/489/135
f 175/496/136 176/495/136 174/494/136 173/493/136
f 174/500/137 169/499/137 170/498/137 173/497/137
f 175/504/138 172/503/138 171/502/138 176/501/138