# Blender v2.92.0 OBJ File: ''
# www.blender.org
mtllib weel2.mtl
o weel
v -0.088113 0.100000 0.200000
v -0.088113 0.000000 -0.100000
v -0.088113 -0.000000 0.200000
v -0.088113 0.100000 -0.100000
v -0.088113 0.400000 0.300000
v -0.088113 0.100000 0.300000
v -0.088113 0.400000 0.200000
v -0.088113 0.400000 -0.100000
v -0.088113 0.100000 -0.200000
v -0.088113 0.400000 -0.200000
v -0.088113 0.500000 0.200000
v -0.088113 0.500000 -0.100000
v 0.011887 0.400000 0.200000
v 0.011887 0.100000 -0.100000
v 0.011887 0.100000 0.200000
v 0.011887 0.400000 -0.100000
v 0.111887 -0.000000 0.200000
v 0.111887 0.000000 -0.100000
v 0.111887 0.100000 0.200000
v 0.111887 0.100000 -0.100000
v 0.111887 0.100000 0.300000
v 0.111887 0.400000 0.300000
v 0.111887 0.400000 0.200000
v 0.111887 0.100000 -0.200000
v 0.111887 0.400000 -0.100000
v 0.111887 0.400000 -0.200000
v 0.111887 0.500000 0.200000
v 0.111887 0.500000 -0.100000
v 0.111887 0.100000 0.300000
v -0.088113 0.400000 0.300000
v -0.088113 0.100000 0.300000
v 0.111887 0.400000 0.300000
v 0.111887 -0.000000 0.200000
v -0.088113 0.100000 0.200000
v -0.088113 -0.000000 0.200000
v 0.111887 0.100000 0.200000
v 0.111887 0.400000 0.200000
v -0.088113 0.500000 0.200000
v -0.088113 0.400000 0.200000
v 0.111887 0.500000 0.200000
v 0.011887 0.100000 -0.100000
v -0.088113 0.400000 -0.100000
v -0.088113 0.100000 -0.100000
v 0.011887 0.400000 -0.100000
v -0.088113 0.100000 0.200000
v -0.088113 0.400000 0.200000
v 0.011887 0.100000 0.200000
v 0.011887 0.400000 0.200000
v -0.088113 0.000000 -0.100000
v -0.088113 0.100000 -0.100000
v 0.111887 0.000000 -0.100000
v 0.111887 0.100000 -0.100000
v -0.088113 0.400000 -0.100000
v -0.088113 0.500000 -0.100000
v 0.111887 0.400000 -0.100000
v 0.111887 0.500000 -0.100000
v -0.088113 0.100000 -0.200000
v -0.088113 0.400000 -0.200000
v 0.111887 0.100000 -0.200000
v 0.111887 0.400000 -0.200000
v -0.088113 0.000000 -0.100000
v 0.111887 -0.000000 0.200000
v -0.088113 -0.000000 0.200000
v 0.111887 0.000000 -0.100000
v -0.088113 0.100000 0.200000
v 0.111887 0.100000 0.300000
v -0.088113 0.100000 0.300000
v 0.111887 0.100000 0.200000
v -0.088113 0.100000 -0.200000
v 0.111887 0.100000 -0.100000
v -0.088113 0.100000 -0.100000
v 0.111887 0.100000 -0.200000
v -0.088113 0.400000 -0.100000
v 0.011887 0.400000 0.200000
v -0.088113 0.400000 0.200000
v 0.011887 0.400000 -0.100000
v -0.088113 0.100000 0.200000
v 0.011887 0.100000 0.200000
v -0.088113 0.100000 -0.100000
v 0.011887 0.100000 -0.100000
v -0.088113 0.400000 0.300000
v 0.111887 0.400000 0.300000
v -0.088113 0.400000 0.200000
v 0.111887 0.400000 0.200000
v -0.088113 0.400000 -0.100000
v 0.111887 0.400000 -0.100000
v -0.088113 0.400000 -0.200000
v 0.111887 0.400000 -0.200000
v -0.088113 0.500000 0.200000
v 0.111887 0.500000 0.200000
v -0.088113 0.500000 -0.100000
v 0.111887 0.500000 -0.100000
vt 0.943359 0.500000
vt 0.943359 0.500000
vt 0.943359 0.500000
vt 0.943359 0.500000
vt 0.943359 0.500000
vt 0.943359 0.500000
vt 0.943359 0.500000
vt 0.943359 0.500000
vt 0.943359 0.500000
vt 0.943359 0.500000
vt 0.943359 0.500000
vt 0.943359 0.500000
vt 0.939453 0.500000
vt 0.939453 0.500000
vt 0.939453 0.500000
vt 0.939453 0.500000
vt 0.943359 0.500000
vt 0.943359 0.500000
vt 0.943359 0.500000
vt 0.943359 0.500000
vt 0.943359 0.500000
vt 0.943359 0.500000
vt 0.939453 0.500000
vt 0.939453 0.500000
vt 0.939453 0.500000
vt 0.943359 0.500000
vt 0.943359 0.500000
vt 0.943359 0.500000
vt 0.939453 0.500000
vt 0.943359 0.500000
vt 0.943359 0.500000
vt 0.943359 0.500000
vt 0.943359 0.500000
vt 0.943359 0.500000
vt 0.943359 0.500000
vt 0.943359 0.500000
vt 0.943359 0.500000
vt 0.943359 0.500000
vt 0.943359 0.500000
vt 0.943359 0.500000
vt 0.943359 0.500000
vt 0.943359 0.500000
vt 0.943359 0.500000
vt 0.943359 0.500000
vt 0.943359 0.500000
vt 0.943359 0.500000
vt 0.943359 0.500000
vt 0.943359 0.500000
vt 0.943359 0.500000
vt 0.943359 0.500000
vt 0.943359 0.500000
vt 0.943359 0.500000
vt 0.943359 0.500000
vt 0.943359 0.500000
vt 0.943359 0.500000
vt 0.943359 0.500000
vt 0.943359 0.500000
vt 0.943359 0.500000
vt 0.943359 0.500000
vt 0.943359 0.500000
vt 0.943359 0.500000
vt 0.943359 0.500000
vt 0.943359 0.500000
vt 0.943359 0.500000
vt 0.943359 0.500000
vt 0.943359 0.500000
vt 0.943359 0.500000
vt 0.943359 0.500000
vt 0.943359 0.500000
vt 0.943359 0.500000
vt 0.943359 0.500000
vt 0.943359 0.500000
vt 0.943359 0.500000
vt 0.943359 0.500000
vt 0.943359 0.500000
vt 0.943359 0.500000
vt 0.943359 0.500000
vt 0.943359 0.500000
vt 0.943359 0.500000
vt 0.943359 0.500000
vt 0.943359 0.500000
vt 0.943359 0.500000
vt 0.943359 0.500000
vt 0.943359 0.500000
vt 0.943359 0.500000
vt 0.943359 0.500000
vt 0.943359 0.500000
vt 0.943359 0.500000
vt 0.943359 0.500000
vt 0.943359 0.500000
vt 0.943359 0.500000
vt 0.943359 0.500000
vt 0.943359 0.500000
vt 0.943359 0.500000
vt 0.943359 0.500000
vt 0.943359 0.500000
vn -1.0000 0.0000 0.0000
vn 1.0000 0.0000 0.0000
vn 0.0000 -0.0000 1.0000
vn 0.0000 0.0000 -1.0000
vn 0.0000 -1.0000 -0.0000
vn 0.0000 1.0000 0.0000
usemtl palette
s 1
f 1/1/1 2/2/1 3/3/1
f 4/4/1 2/2/1 1/1/1
f 5/5/1 1/1/1 6/6/1
f 7/7/1 1/1/1 5/5/1
f 8/8/1 9/9/1 4/4/1
f 10/10/1 9/9/1 8/8/1
f 11/11/1 8/8/1 7/7/1
f 12/12/1 8/8/1 11/11/1
f 13/13/1 14/14/1 15/15/1
f 16/16/1 14/14/1 13/13/1
f 17/17/2 18/18/2 19/19/2
f 19/19/2 18/18/2 20/20/2
f 21/21/2 19/19/2 22/22/2
f 19/23/2 20/24/2 23/25/2
f 22/22/2 19/19/2 23/26/2
f 20/20/2 24/27/2 25/28/2
f 23/25/2 20/24/2 25/29/2
f 25/28/2 24/27/2 26/30/2
f 23/26/2 25/28/2 27/31/2
f 27/31/2 25/28/2 28/32/2
f 29/33/3 30/34/3 31/35/3
f 32/36/3 30/34/3 29/33/3
f 33/37/3 34/38/3 35/39/3
f 36/40/3 34/38/3 33/37/3
f 37/41/3 38/42/3 39/43/3
f 40/44/3 38/42/3 37/41/3
f 41/45/3 42/46/3 43/47/3
f 44/48/3 42/46/3 41/45/3
f 45/49/4 46/50/4 47/51/4
f 47/51/4 46/50/4 48/52/4
f 49/53/4 50/54/4 51/55/4
f 51/55/4 50/54/4 52/56/4
f 53/57/4 54/58/4 55/59/4
f 55/59/4 54/58/4 56/60/4
f 57/61/4 58/62/4 59/63/4
f 59/63/4 58/62/4 60/64/4
f 61/65/5 62/66/5 63/67/5
f 64/68/5 62/66/5 61/65/5
f 65/69/5 66/70/5 67/71/5
f 68/72/5 66/70/5 65/69/5
f 69/73/5 70/74/5 71/75/5
f 72/76/5 70/74/5 69/73/5
f 73/77/5 74/78/5 75/79/5
f 76/80/5 74/78/5 73/77/5
f 77/81/6 78/82/6 79/83/6
f 79/83/6 78/82/6 80/84/6
f 81/85/6 82/86/6 83/87/6
f 83/87/6 82/86/6 84/88/6
f 85/89/6 86/90/6 87/91/6
f 87/91/6 86/90/6 88/92/6
f 89/93/6 90/94/6 91/95/6
f 91/95/6 90/94/6 92/96/6
